<?xml version="1.0" encoding="UTF-8"?>
<svg id="Layer_3" data-name="Layer 3" xmlns="http://www.w3.org/2000/svg" viewBox="0 0 377.32 438.01">
  <defs>
    <style>
      .cls-1 {
        stroke-width: 0px;
      }
    </style>
  </defs>
  <path class="cls-1" d="m377.32,189.11v13.9c-.1.61-.23,1.21-.3,1.82-.76,6.8-1.27,13.63-2.34,20.38-1.26,7.94-2.62,15.91-4.67,23.67-2.33,8.86-5.33,17.55-8.3,26.23-1.6,4.68-3.61,9.23-5.66,13.73-1.74,3.82-3.41,7.78-5.83,11.17-3.7,5.18-8.55,9.52-14.34,12.05-5.23,2.29-10.99,3.46-16.6,4.8-4.63,1.1-9.36,1.83-14.07,2.53-10.5,1.57-21.01,3.12-31.54,4.48-6.02.78-12.08,1.25-18.13,1.69-6.63.48-13.27.78-19.91,1.16-3.62.21-7.25.39-10.87.68-.57.05-1.48.52-1.57.94-.76,3.58-1.36,7.2-1.96,10.54,8.62,2.39,16.81,4.51,24.91,6.94,10.4,3.12,20.69,6.53,30.3,11.75,10.45,5.67,14.96,14.45,14.38,26.17-.51,10.32-2.01,20.49-4.17,30.58-.17.81-.89,1.85-1.62,2.16-6.45,2.74-12.87,5.59-19.47,7.93-19.8,7.04-40.19,11.38-61.17,12.88-3.7.26-7.4.49-11.1.73h-14.32c-.83-.11-1.65-.23-2.49-.31-9.28-.88-18.61-1.38-27.83-2.71-18.9-2.73-37.11-8.1-54.69-15.55-.79-.33-1.74-1.15-1.93-1.92-3.12-12.61-5.29-25.37-5.54-38.4-.2-10.68,4.49-18.58,13.83-23.72,2.21-1.21,4.39-2.55,6.74-3.42,8.46-3.14,16.91-6.33,25.5-9.08,7.64-2.44,15.47-4.31,23.38-6.48-.33-2.58-.63-5.28-1.08-7.96-.06-.36-.86-.82-1.35-.86-7.66-.58-15.33-1.05-22.99-1.63-6.68-.5-13.36-1.02-20.03-1.69-7.85-.78-15.7-1.68-23.54-2.63-5.59-.67-11.2-1.29-16.73-2.31-6.15-1.13-12.24-2.62-18.33-4.09-5.7-1.37-11.31-2.94-15.96-6.87-4.3-3.63-8.6-7.27-11.17-12.39-1.83-3.65-3.38-7.45-4.88-11.25-2.74-6.93-5.58-13.83-7.93-20.89-2.03-6.08-3.68-12.32-5.09-18.58-2.51-11.16-4.99-22.34-5.99-33.77C.64,208.52.3,205.56,0,202.59c0-4.91,0-9.83,0-14.74.58-5.33,1.25-10.65,1.72-15.99.94-10.71,3.36-21.09,7.48-30.98,3.1-7.46,6.22-15.02,10.43-21.87,7.27-11.83,16.53-22.11,27.64-30.57,6.45-4.91,13.18-9.32,20.71-12.56,14.1-6.07,28.85-8.88,44.07-9.69,1.51-.08,3.03-.01,4.6-.01-2.06-13.59-4.09-26.99-6.13-40.47-5.18.81-10.16,1.58-15.13,2.36-3.63.57-7.1-1.81-7.63-5.27-.54-3.52,2.01-6.6,5.77-7.2,13.63-2.15,27.23-4.46,40.87-6.49,11.91-1.78,23.86-3.37,35.81-4.85,9.94-1.23,19.92-2.26,29.89-3.2,5.72-.54,11.47-.88,17.21-1.05,3.08-.09,5.51,2.56,5.75,5.63.25,3.16-1.84,6.03-4.93,6.61-1.3.25-2.64.29-3.97.38-4.11.3-8.22.59-12.33.88,3.26,21.91,6.5,43.61,9.71,65.13,6.08-1.98,11.93-3.73,17.68-5.77,9.68-3.44,19.77-4.73,29.9-5.44,5.53-.39,11.15.29,16.72.63,2.99.18,6.06.31,8.92,1.09,7.49,2.03,14.96,4.19,22.3,6.68,9.8,3.33,18.21,9.28,25.99,15.83,10.19,8.58,18.87,18.57,25.64,30.24,6.46,11.15,11.35,22.85,14,35.41,1.61,7.62,2.58,15.38,3.75,23.09.44,2.88.61,5.81.9,8.71Zm-188.54,124.66c0,.21,0,.42,0,.64,11.69-.36,23.39-.69,35.08-1.1,5.66-.2,11.31-.53,16.97-.85,4.25-.24,8.51-.51,12.75-.85,6.9-.54,13.81-1.06,20.7-1.74,7.18-.71,14.38-1.33,21.49-2.49,8.24-1.34,16.44-3.03,24.57-4.94,4.51-1.06,8.89-2.75,13.24-4.41,4.53-1.72,6.21-6.07,8.18-9.94,4.55-8.97,7.48-18.58,10.76-28.05,3.43-9.9,6.2-19.98,7.9-30.29,1.28-7.71,1.78-15.55,2.41-23.35.42-5.21.74-10.46.57-15.67-.18-5.56-1.09-11.1-1.52-16.66-.6-7.92-2.35-15.64-4.89-23.09-3.74-10.95-8.3-21.61-15.31-30.96-3.35-4.48-6.63-9.14-10.66-12.95-9.63-9.11-20.89-15.76-33.33-20.45-7.4-2.79-15.12-4.05-22.85-4.82-11.46-1.15-22.83-.06-34.21,2.02-12.6,2.31-23.81,7.71-34.69,13.94-4.28,2.45-8.1,5.77-11.9,8.96-2.7,2.27-7.5,2.43-9.99.2-5.12-4.57-10.46-8.84-16.76-11.7-6.72-3.05-13.3-6.55-20.26-8.87-10.17-3.39-20.81-4.77-31.55-4.99-8.48-.18-16.9.45-25.14,2.57-4.65,1.2-9.38,2.32-13.8,4.14-4.81,1.98-9.4,4.59-13.92,7.2-7.73,4.45-14.68,9.82-20.38,16.85-5.7,7.03-10.9,14.28-14.75,22.52-3.45,7.4-6.54,14.92-8.62,22.82-2.55,9.64-3.62,19.49-4.04,29.43-.2,4.73-.66,9.48-.47,14.2.24,6.06.85,12.11,1.62,18.13.82,6.44,1.66,12.91,3.14,19.22,1.79,7.64,3.92,15.25,6.52,22.65,2.17,6.18,3.17,12.88,7.35,18.27.33.43.53.99.74,1.5,1.24,3.02,2.31,6.12,3.73,9.06,1.6,3.32,3.67,6.31,7.5,7.48,4.99,1.52,9.9,3.38,14.98,4.5,10.66,2.36,21.35,4.62,32.12,6.38,8.54,1.4,17.21,2.1,25.84,2.94,7.23.7,14.47,1.21,21.71,1.69,5.72.38,11.45.75,17.18.83,10.66.13,21.33.04,32,.04Z"/>
  <path class="cls-1" d="m166.6,211.6c11.63-5.97,23.24-6.46,35.18-.88.26-.76.53-1.45.74-2.16,6.02-19.65,22.79-33.63,43.22-35.46,29.29-2.61,50.68,18.7,54.22,42.15,4.16,27.57-14.41,53.06-41.86,57.28-27.37,4.2-52.77-14.39-57.17-41.84-.17-1.04-.48-2.11-.36-3.12.29-2.43-1.27-3.54-2.94-4.64-8.02-5.24-20.51-4.51-27.79,1.72-.62.53-.97,1.65-1.01,2.52-.53,13.32-5.04,25.07-14.59,34.42-14.31,13.99-31.49,18.5-50.57,12.52-18.91-5.93-30.5-19.28-34.23-38.79-5.28-27.61,13.9-54.42,41.42-58.49,24.09-3.57,46.62,9.86,54.98,32.75.21.59.44,1.17.76,2.02Zm46.46,11.29c-.46,18.86,14.7,37.49,37.45,37.69,20.65.18,37.69-16.96,37.51-37.68-.2-22.02-18.28-37.96-38.87-37.27-20.22.67-36.38,17.57-36.08,37.26Zm-131.87,3.32c-.06,20.88,16.64,37.75,37.42,37.79,20.47.04,37.56-16.82,37.57-37.25,0-22.41-18.28-38.12-38.62-37.8-19.69.31-36.32,17.02-36.38,37.26Z"/>
</svg>