<?xml version="1.0" encoding="UTF-8"?>
<svg id="Layer_2" data-name="Layer 2" xmlns="http://www.w3.org/2000/svg" viewBox="0 0 348.71 298.83">
  <defs>
    <style>
      .cls-1 {
        stroke-width: 0px;
      }
    </style>
  </defs>
  <path class="cls-1" d="m0,166.85c1-7.14,1.58-14.37,3.07-21.4,8.45-39.83,29.79-69.88,69.03-83.55,35.71-12.44,69.29-5.13,99.77,16.89.9.65,1.77,1.35,2.86,2.18.91-.65,1.81-1.26,2.68-1.91,20.67-15.35,43.96-22.4,69.62-21.98,48.25.79,84.39,36.93,95.51,76.83,2.72,9.77,3.69,20.03,5.47,30.06.22,1.21.46,2.42.69,3.64v17.25c-.21.82-.57,1.64-.62,2.48-1.74,27.99-9.42,54.43-21.49,79.57-4.31,8.99-11.67,15.56-21.58,18.38-24.6,7.01-49.9,9.6-75.29,11.2-17.19,1.08-34.44,1.32-51.67,1.96-.86.03-1.72.26-2.58.39h-2.25c-.86-.13-1.71-.35-2.58-.38-20.08-.89-40.21-1.2-60.24-2.77-22.6-1.78-45.05-4.96-66.86-11.69-12.72-3.92-19.55-13.16-23.99-24.8-1.72-4.49.73-9.37,5.02-10.95,2.64-.98,6.45,1.45,8.49,5.4.11.22.27.44.31.68,2.15,10.46,9.23,15.34,19.18,17.04,17.05,2.91,34.01,6.51,51.15,8.62,32.05,3.95,64.3,4.22,96.53,3.07,33.05-1.18,66.02-3.27,98.33-11.16,7.96-1.94,13.25-6.04,16.54-13.87,8.69-20.69,15.18-41.91,17.54-64.25,2.9-27.48-.05-54.09-13.5-78.76-13.24-24.29-34.07-38.04-61.19-41.89-29.12-4.13-55.37,3.17-78.34,21.73-3.01,2.43-7.03,2.22-10.55-.77-15.43-13.1-33.5-20.28-53.37-22.27-42.12-4.23-79.96,15.28-94.55,62.01-5.33,17.08-7.21,34.62-5.59,52.49.33,3.59.74,7.18.92,10.79.23,4.86-2.63,8.33-6.87,8.62-3.35.22-7.69-4.05-8.1-7.94C1.03,193.21.51,188.65,0,184.1c0-5.75,0-11.5,0-17.25Z"/>
  <path class="cls-1" d="m172.52,205.41c-9.69.08-22.77-9.51-25.72-18.86-1-3.18.61-7.12,3.68-8.97,2.83-1.7,5.71-1.15,8.29,1.79.96,1.1,1.83,2.42,2.31,3.78,1.86,5.3,6.16,6.94,11.09,7.32,4.81.37,8-2.1,10.28-7.05.71-1.55,1.63-3.09,2.78-4.34,2.13-2.32,4.71-3.18,7.7-1.41,3.14,1.87,4.85,5.39,4.07,8.51-2.25,8.98-15.19,19.14-24.48,19.22Z"/>
  <path class="cls-1" d="m102.63,180.34c.04-4.41,4.06-8.45,8.39-8.45,4.54,0,9.32,4.73,9.24,9.13-.07,4.27-4.59,8.55-8.92,8.45-4.43-.1-8.75-4.64-8.71-9.14Z"/>
  <path class="cls-1" d="m239.13,176.76c.09,3.96-4.31,8.57-8.32,8.71-4,.14-8.71-4.47-8.85-8.65-.14-4,3.91-8.19,8.05-8.34,4.3-.16,9.03,4.13,9.12,8.28Z"/>
  <path class="cls-1" d="m21.42,217.5c-.09,3.86-4.37,8-8.1,7.84-3.72-.16-7.46-4.35-7.27-8.15.19-3.84,4.17-7.74,7.83-7.67,3.58.07,7.63,4.34,7.54,7.98Z"/>
  <path class="cls-1" d="m296.95,11.93c4.44,0,8.97-.6,13.29.11,15.72,2.57,24.95,17.98,20.94,34.7-1.77,7.39-5.03,14.05-10.84,19.28-4.16,3.75-7.59,4.04-11.97.67-14.62-11.26-30.96-17.41-49.6-17.06-7.2.14-10.52-3.39-10.44-10.64.13-11.76,3.17-22.41,11.79-30.98,10.86-10.79,22.44-10.7,32.89.41,1.36,1.45,2.58,3.02,3.87,4.54.02-.34.04-.69.07-1.03Zm16.24,40.8c3.5-5.55,4.72-11.17,3.97-17.18-.59-4.65-3.4-8.48-7.45-8.68-3.83-.19-8.02.26-11.51,1.72-5.53,2.31-9.32,1.45-11.84-4.06-.78-1.69-1.42-3.48-2.41-5.04-3.73-5.91-9.72-6.53-14.31-1.33-4.08,4.62-5.86,10.24-6.45,16.64,18.5,1.06,35.06,6.93,50,17.92Z"/>
</svg>