<?xml version="1.0" encoding="UTF-8"?>
<svg id="Layer_4" data-name="Layer 4" xmlns="http://www.w3.org/2000/svg" viewBox="0 0 377.32 441.08">
  <defs>
    <style>
      .cls-1 {
        stroke-width: 0px;
      }
    </style>
  </defs>
  <path class="cls-1" d="m36.1,153.44C36.22,68.4,105.02-.14,190.13,0c85.03.14,153.54,68.89,153.36,153.9-.17,84.88-69.23,153.56-154.2,153.36-84.74-.2-153.31-69.05-153.19-153.82Zm153.38,139.47c74.41.12,137.45-58.42,139.43-135.57,2.06-80.25-62.41-142.68-138.72-142.96-77.09-.29-139.58,61.91-139.77,139.02-.19,76.85,62.12,139.36,139.06,139.51Z"/>
  <path class="cls-1" d="m309.33,426.81c-4.65,2.17-8.9,4.15-13.46,6.27-.34-1.1-.6-1.89-.82-2.69-4.5-16.8-11.47-32.42-22.31-46.14-13.99-17.72-32.39-28.58-54.08-33.92-27.58-6.79-54.32-4.18-79.83,8.5-21.86,10.86-36.51,28.52-46.06,50.59-3.32,7.67-5.76,15.72-8.73,23.95-3.72-1.73-7.77-3.55-11.75-5.52-.42-.21-.69-1.39-.53-1.98,13.51-48.32,42.68-80.88,93.24-90.96,31.77-6.33,62.13-1.48,90.2,15.1,22.39,13.22,37.15,33,46.94,56.71,2.67,6.48,4.74,13.21,7.18,20.1Z"/>
  <path class="cls-1" d="m190.91,172.49c-10.44-.16-17.24-5.79-22.35-13.89-1.92-3.05-.99-5.85,2.28-7.38,1.05-.49,2.89-.25,3.92.38,1.37.84,2.45,2.29,3.41,3.64,7.56,10.71,21.4,6.97,26.41-.37.49-.72,1.01-1.45,1.61-2.08,2.4-2.52,4.01-2.89,6-1.45,3.05,2.22,3.85,4.65,1.78,7.62-5.63,8.06-13.01,13.33-23.05,13.52Z"/>
  <path class="cls-1" d="m142.59,157.13c0,3.37-4.13,7.24-7.71,7.23-2.84,0-6.86-4.26-6.91-7.28-.04-3.2,3.96-7.19,7.2-7.18,3.44.01,7.42,3.9,7.41,7.23Z"/>
  <path class="cls-1" d="m251.62,156.65c-.02,2.93-3.92,6.73-6.83,6.68-3.16-.05-7.19-4.35-7.16-7.63.03-2.84,3.65-6.37,6.49-6.33,3.28.05,7.53,4.17,7.5,7.28Z"/>
</svg>